<svg width="897" height="703" viewBox="0 0 897 703" fill="none" xmlns="http://www.w3.org/2000/svg">
<path fill-rule="evenodd" clip-rule="evenodd" d="M583.013 687.32C582.311 687.518 581.62 687.795 580.93 688.073C578.791 688.932 576.667 689.785 574.286 688.22C569.698 686.571 565.119 684.891 560.54 683.212C551.383 679.853 542.226 676.494 532.989 673.375C525.281 670.776 517.323 668.679 509.436 666.599L508.516 666.357C505.907 665.727 504.107 664.377 504.018 661.948C503.838 656.28 503.928 650.521 504.377 644.853C504.557 642.334 504.018 640.625 502.488 638.825C501.14 637.26 499.785 635.708 498.433 634.159L498.423 634.148C494.724 629.91 491.042 625.692 487.553 621.28C477.899 609.115 467.955 597.192 458.004 585.262L458.003 585.261L458.002 585.26L458.001 585.259L457.978 585.231C454.397 580.937 450.814 576.643 447.245 572.335C445.871 570.618 445.071 571.605 444.297 572.558C444.26 572.604 444.223 572.65 444.186 572.695C441.578 575.573 439.06 578.54 436.543 581.507L436.538 581.513C432.805 586.011 429.094 590.554 425.383 595.097C421.671 599.641 417.959 604.185 414.225 608.684C411.949 611.436 409.647 614.175 407.344 616.915L407.344 616.916L407.343 616.916L407.343 616.917C403.546 621.434 399.746 625.956 396.05 630.548C395.807 630.852 395.55 631.154 395.292 631.459C393.64 633.407 391.914 635.443 393.081 638.555C394.257 641.554 394.127 644.668 393.996 647.797C393.926 649.456 393.856 651.119 393.981 652.771C394.251 656.55 392.361 658.529 388.763 659.339C386.847 659.807 384.921 660.26 382.993 660.714L382.985 660.716C376.768 662.179 370.533 663.646 364.56 665.637C352.193 669.837 339.893 674.44 327.603 679.041L327.537 679.065C325.632 679.778 323.728 680.491 321.823 681.202C318.134 682.552 315.705 681.832 313.725 678.143C310.936 673.113 308.037 668.138 305.134 663.157C302.793 659.14 300.45 655.118 298.16 651.061C296.181 647.552 298.16 643.774 302.209 643.144C304.026 642.889 305.857 642.665 307.692 642.439L307.695 642.439L307.699 642.438L307.703 642.438L307.704 642.438L307.705 642.437L307.706 642.437C310.409 642.105 313.118 641.773 315.795 641.344C316.707 641.186 317.631 641.075 318.557 640.965C321.832 640.573 325.115 640.181 327.851 637.655C329.513 636.112 331.371 634.765 333.243 633.406L333.244 633.406L333.244 633.406L333.245 633.405C334.211 632.705 335.18 632.002 336.129 631.267C338.083 629.795 340.002 628.259 341.921 626.723C346.099 623.38 350.281 620.034 354.843 617.322C358.442 615.162 360.871 613.093 362.491 609.044C369.059 592.759 376.976 577.014 385.614 561.629C393.621 547.413 402.169 533.467 411.346 519.971C411.417 519.859 411.486 519.755 411.552 519.656C412.059 518.892 412.313 518.509 411.436 517.632C410.404 516.6 409.459 515.463 408.517 514.329C407.324 512.892 406.135 511.461 404.778 510.254C403.345 508.964 401.914 507.67 400.482 506.375C392.927 499.54 385.354 492.69 377.336 486.411C364.299 476.157 350.771 466.464 337.248 456.775C336.369 456.146 335.49 455.516 334.612 454.886C333.707 454.238 332.804 453.59 331.9 452.942C327.581 449.883 324.072 449.523 319.754 452.402C314.625 455.731 312.016 454.921 309.047 449.613C307.198 446.307 305.357 442.983 303.515 439.656C299.44 432.298 295.355 424.921 291.142 417.672C290.329 416.27 289.612 414.798 288.882 413.3C287.27 409.991 285.595 406.553 282.685 403.457C282.104 407.816 282.011 411.875 281.92 415.803V415.804C281.871 417.956 281.823 420.069 281.695 422.171C281.336 428.779 281.021 435.365 280.706 441.951L280.705 441.965L280.705 441.979C280.39 448.565 280.075 455.151 279.716 461.759C279.536 465.538 277.916 467.427 274.137 467.337H260.102C258.572 467.337 257.942 467.517 257.672 469.407C257.079 472.903 257.017 476.4 256.956 479.897V479.898C256.933 481.169 256.911 482.441 256.863 483.712C256.849 484.112 256.836 484.512 256.824 484.913C256.81 485.375 256.797 485.838 256.783 486.301L256.782 486.34C256.658 490.701 256.532 495.083 255.783 499.278C252.814 517.092 243.457 531.848 230.501 543.814C224.06 549.759 216.766 554.767 209.471 559.776L209.468 559.778C206.166 562.045 202.864 564.312 199.64 566.667C191.715 572.468 183.79 578.3 175.848 584.143L175.841 584.148L175.835 584.152C169.986 588.456 164.128 592.767 158.253 597.078C152.368 601.417 146.483 605.745 140.603 610.069L140.591 610.078C130.383 617.585 120.187 625.083 110.027 632.617C108.618 633.674 107.152 634.675 105.685 635.677C101.908 638.255 98.1231 640.839 95.2719 644.403C88.8838 652.411 82.7657 660.598 76.7375 668.966C76.2584 669.64 75.7444 670.297 75.2277 670.957L75.2262 670.959C73.1237 673.645 70.9793 676.384 70.9793 680.572C70.9793 680.935 70.9867 681.312 70.9944 681.7C71.04 684.011 71.0932 686.706 69.6297 688.94C69.514 690.01 69.4077 691.07 69.3016 692.128C69.0777 694.36 68.8553 696.578 68.55 698.837C68.1002 702.436 63.5116 704.055 60.1826 702.166C56.9761 700.344 53.7697 698.64 50.5154 696.911L50.5132 696.91C49.7504 696.504 48.9849 696.098 48.2162 695.688C46.9929 694.992 45.776 694.297 44.562 693.603L44.5604 693.602L44.5573 693.6C41.2194 691.692 37.9041 689.797 34.5404 687.95C30.0417 685.521 29.052 683.362 30.7615 678.503C32.8469 672.415 34.9575 666.327 37.0697 660.234L37.0732 660.224C40.6098 650.023 44.151 639.808 47.5864 629.558C49.0332 625.217 50.0729 620.819 51.1263 616.362C51.3831 615.276 51.6406 614.186 51.9051 613.093C53.1647 607.695 54.2444 606.795 59.8227 606.705H59.8248C64.0528 606.705 68.2808 606.705 72.5088 607.065C74.1283 607.155 74.8481 606.525 75.8378 605.625C78.5442 603.009 81.2505 600.413 83.9535 597.82L83.965 597.809L83.9766 597.798L83.9883 597.787C89.3611 592.633 94.7206 587.492 100.04 582.232C106.95 575.437 113.841 568.606 120.737 561.77C135.662 546.974 150.61 532.155 165.81 517.632C169.409 514.213 172.941 510.749 176.473 507.285C180.004 503.821 183.535 500.357 187.134 496.938C188.753 495.409 189.203 494.059 188.484 491.63C186.986 486.252 185.797 480.822 184.606 475.38C184.223 473.629 183.839 471.878 183.445 470.126C182.187 469.928 181.562 470.704 180.962 471.45L180.961 471.45C180.746 471.718 180.533 471.982 180.296 472.196C177.237 474.805 173.368 473.365 172.288 469.497C171.527 466.743 171.337 463.95 171.149 461.17V461.17C171.048 459.681 170.947 458.195 170.759 456.72C170.174 452.492 169.949 448.241 169.724 443.989L169.724 443.989C169.499 439.738 169.274 435.487 168.69 431.258C167.682 423.701 167.291 416.143 166.901 408.585C166.734 405.346 166.566 402.107 166.35 398.868C165.451 384.562 165.72 370.167 166.35 355.951C166.53 350.823 166.8 345.334 168.6 340.296C168.959 339.306 169.049 338.227 167.43 338.137C162.243 337.906 158.237 335.239 154.23 332.571L154.23 332.571C151.982 331.074 149.734 329.577 147.276 328.509C145.91 327.883 144.615 327.077 143.324 326.273L143.324 326.272C142.575 325.806 141.828 325.34 141.068 324.911C133.24 320.592 129.282 313.934 129.461 305.027C129.461 304.226 129.214 304.069 128.939 303.894C128.844 303.833 128.745 303.77 128.652 303.677C119.205 295.579 117.225 284.423 119.025 273.356C120.374 264.989 118.395 258.871 113.626 252.663C100.67 235.928 84.6551 222.612 67.4704 210.465C63.229 207.496 58.8389 204.775 54.4488 202.054L54.4483 202.054C48.5945 198.426 42.7408 194.797 37.2396 190.581C24.5534 180.864 15.4662 168.538 8.71823 154.322C4.66946 145.685 2.2402 136.418 0.890614 127.061C-0.63892 116.174 -0.27903 105.197 2.60009 94.5807C5.83911 82.4344 11.3274 71.2778 20.7746 62.7304C29.052 55.2626 38.6791 50.3141 49.9257 48.8746C71.2492 46.0854 89.3337 53.2832 105.439 66.8691C119.475 78.7455 128.742 93.591 134.5 110.866C137.829 120.853 139.538 131.11 139.538 141.636C139.538 147.934 138.909 154.322 136.929 160.261C130.901 178.705 129.551 197.689 130.091 216.943C130.361 226.121 131.711 235.208 133.69 244.115C134.141 246.11 135.465 247.921 136.776 249.712C137.298 250.425 137.818 251.135 138.279 251.853C139.089 253.112 140.078 253.202 141.068 252.033C143.074 249.6 145.08 247.162 147.087 244.723L147.087 244.723L147.087 244.722L147.088 244.722C153.543 236.877 160.01 229.017 166.53 221.262C171.659 215.054 176.877 208.936 182.275 202.998C186.504 198.319 188.394 192.381 190.193 186.713C190.926 184.246 189.486 181.63 188.105 179.123C187.622 178.247 187.147 177.384 186.774 176.546C186.266 175.375 185.804 174.371 185.401 173.495L185.4 173.494C184.208 170.901 183.527 169.422 183.682 168.037C183.887 166.196 185.566 164.52 189.475 160.618C189.735 160.359 190.004 160.09 190.283 159.811C192.792 157.302 195.292 154.777 197.794 152.251L197.794 152.251L197.794 152.251L197.795 152.251L197.795 152.25L197.795 152.25L197.796 152.25C203.639 146.35 209.491 140.441 215.475 134.708C219.524 130.831 222.814 126.338 226.101 121.85C228 119.257 229.898 116.666 231.94 114.195C239.498 105.107 247.506 96.4701 258.842 92.2414C273.418 86.843 287.453 89.6322 301.129 95.9303C303.86 97.1847 306.529 98.6813 309.188 100.172C309.771 100.499 310.354 100.825 310.936 101.149C312.826 102.228 314.355 102.318 315.615 100.069C315.809 99.7127 316.001 99.3476 316.193 98.9801L316.193 98.9799C317.071 97.3059 317.976 95.5811 319.304 94.4007C324.432 89.6322 323.622 84.0539 322.633 78.0257C319.664 59.8512 324.612 43.5662 335.319 28.9007C344.136 16.7543 356.103 9.10667 370.858 7.12728C381.475 5.68771 391.912 8.56684 400.729 15.0449C413.595 24.582 419.533 37.718 421.153 53.3732C423.672 77.216 415.394 96.65 397.67 112.215C386.243 122.292 372.478 124.272 358.172 122.382C355.467 121.996 354.975 123.269 354.517 124.453C354.336 124.923 354.16 125.379 353.853 125.711C352.623 127.01 353.937 127.426 354.955 127.748C355.277 127.85 355.57 127.942 355.743 128.05C366.539 134.888 377.426 141.636 388.313 148.204C404.058 157.831 408.647 176.096 400.369 192.561C394.363 204.639 387.195 215.991 380.037 227.327L380.036 227.328L380.035 227.329L380.035 227.331C377.436 231.447 374.838 235.561 372.298 239.706C368.423 246.105 364.741 252.618 361.05 259.146L361.048 259.15C359.082 262.626 357.114 266.107 355.113 269.577C354.934 269.881 354.757 270.184 354.58 270.486L354.441 270.726L354.441 270.726C353.515 272.317 352.602 273.885 351.514 275.336C348.725 278.845 345.576 277.855 342.247 275.426C340.987 281.814 340.537 287.932 340.087 294.05C339.817 297.649 339.435 301.225 339.053 304.801V304.802V304.802V304.802C338.67 308.378 338.288 311.955 338.018 315.553C337.928 317.353 338.198 318.073 339.188 319.062C342.06 322.007 344.928 324.952 347.795 327.896C359.119 339.52 370.419 351.122 381.835 362.609C386.703 367.512 391.502 372.499 396.307 377.492L396.309 377.494L396.311 377.496C403.761 385.237 411.228 392.995 418.993 400.488C422.592 403.907 421.783 407.865 417.194 410.115L417.194 410.115L417.193 410.115L417.192 410.115C413.872 411.753 412.186 412.585 411.759 413.845C411.318 415.144 412.217 416.898 414.045 420.461C415.669 423.633 417.264 426.826 418.861 430.022L418.861 430.023L418.861 430.023L418.861 430.024C422.927 438.161 427.003 446.32 431.59 454.201C434.109 458.595 437.465 462.525 440.822 466.457C442.14 468 443.458 469.544 444.726 471.116C445.962 472.571 446.67 471.555 447.276 470.685C447.419 470.479 447.557 470.281 447.695 470.126C463.26 453.571 473.967 433.867 483.414 413.354C483.954 412.184 484.516 411.037 485.078 409.89C485.641 408.743 486.203 407.595 486.743 406.426C486.236 406.223 485.725 406.025 485.213 405.827L485.213 405.827L485.212 405.826L485.212 405.826C483.449 405.143 481.668 404.453 479.995 403.547C476.486 401.747 473.877 398.238 478.015 394.1C481.458 390.707 484.787 387.173 488.114 383.64L488.115 383.64L488.115 383.639L488.115 383.639C490.7 380.894 493.284 378.15 495.92 375.475C500.728 370.578 505.524 365.663 510.322 360.747C524.739 345.976 539.168 331.192 553.952 316.813C559.871 311.056 559.068 304.861 558.259 298.622L558.256 298.6C558.222 298.338 558.188 298.076 558.154 297.813C558.133 297.65 558.113 297.486 558.092 297.322L558.063 297.083C558.042 296.912 558.021 296.741 558.001 296.569C557.793 294.938 557.719 293.294 557.644 291.641C557.525 289.009 557.405 286.356 556.741 283.703C555.985 280.542 555.912 277.17 555.839 273.829V273.828C555.817 272.796 555.794 271.766 555.752 270.747C555.662 268.138 554.762 268.228 552.783 269.307C548.914 271.467 546.305 270.747 544.325 266.878C535.858 250.576 526.149 235.029 516.444 219.488C512.329 212.899 508.216 206.312 504.197 199.669C499.339 191.751 494.93 183.474 493.131 174.116C491.331 164.669 494.121 156.662 499.699 149.374C504.555 143.113 511.18 139.301 517.802 135.492L517.803 135.491C520.506 133.936 523.209 132.381 525.791 130.66C529.74 127.98 533.855 125.521 537.962 123.067L537.966 123.065L537.97 123.063C539.101 122.387 540.23 121.712 541.356 121.033C541.568 120.909 541.804 120.803 542.038 120.698C542.996 120.266 543.916 119.852 542.976 118.333C542.801 118.037 542.647 117.717 542.493 117.397L542.493 117.396C541.852 116.065 541.21 114.732 539.107 115.094C513.645 119.503 496.1 106.547 484.493 87.7427C476.216 74.3368 474.237 59.4014 475.856 44.286C477.116 32.5895 481.434 21.4329 490.162 13.0655C499.789 3.88826 510.945 -0.790315 525.341 0.109411C550.353 1.72892 571.947 28.9007 574.286 50.764C575.276 59.8512 576.176 68.8485 573.386 77.7558C573.116 78.7455 573.117 80.275 573.656 81.1748C576.445 85.5834 579.415 89.9921 582.384 94.3108C583.305 95.6931 584.03 95.24 585.006 94.6301C585.173 94.5254 585.348 94.4162 585.533 94.3108C594.62 88.7324 604.337 83.9639 614.864 82.5243C626.2 80.9948 637.357 82.9742 647.254 89.7221C657.241 96.65 664.799 105.827 671.727 115.634C675.505 120.943 679.734 125.801 684.323 130.39C688.095 134.124 691.851 137.89 695.612 141.662L695.615 141.665L695.618 141.668L695.628 141.678L695.631 141.681L695.631 141.682L695.632 141.683C700.654 146.72 705.685 151.765 710.775 156.752C713.204 159.091 713.744 161.34 712.394 164.399C711.573 166.287 710.865 168.231 710.158 170.172C709.315 172.485 708.473 174.794 707.446 176.996C706.575 178.823 706.968 180.061 707.483 181.687L707.536 181.854C710.878 192.091 717.724 199.74 724.569 207.389C726.568 209.622 728.567 211.856 730.479 214.154C734.538 219.099 738.658 223.983 742.786 228.877C745.794 232.443 748.806 236.014 751.802 239.617C752.221 240.115 752.654 240.69 753.095 241.276C754.645 243.334 756.31 245.545 757.92 245.195C760.44 244.655 762.239 240.876 763.049 237.997C764.398 233.408 765.388 228.55 765.838 223.781C766.027 221.719 766.251 219.661 766.475 217.605L766.476 217.6L766.476 217.596L766.476 217.592C767.209 210.863 767.94 204.149 767.457 197.329C766.828 187.342 765.748 177.355 763.678 167.458C763.059 164.403 762.354 161.366 761.65 158.331C759.286 148.144 756.929 137.986 757.83 127.241C759.18 111.945 763.589 97.8197 771.056 84.4138C776.005 75.5065 782.663 67.9488 790.041 61.0209C800.927 50.854 813.703 44.106 828.369 41.7667C848.703 38.5277 866.427 44.3759 880.283 59.9412C889.46 70.2881 894.139 82.7043 896.118 96.4701C898.997 116.714 894.679 135.518 885.321 153.153C876.504 169.798 863.728 182.844 846.993 192.021C836.916 197.509 827.469 204.167 818.382 211.275C809.475 218.203 800.747 225.401 793.1 233.768C787.521 239.886 782.303 246.275 778.434 253.742C777.174 256.082 776.904 258.511 777.534 260.85C779.964 270.747 778.884 280.194 774.385 289.371C773.845 290.361 773.216 291.351 772.496 292.161C770.067 294.77 768.357 296.929 768.087 301.338C767.817 306.736 764.398 312.494 759.09 315.823C751.982 320.232 744.874 324.551 737.586 328.779C734.887 330.309 731.738 330.849 728.589 331.029C728.849 332.937 729.137 334.817 729.424 336.685C730.028 340.628 730.623 344.514 730.928 348.483C731.468 356.311 731.918 364.139 731.648 372.056C731.198 385.552 730.659 399.048 729.849 412.544C729.219 423.071 728.499 433.598 727.15 444.034C726.872 446.131 726.711 448.238 726.55 450.342L726.55 450.345C726.241 454.378 725.934 458.397 724.81 462.299C723.461 466.707 719.862 467.697 716.443 464.818C716.225 464.655 716.04 464.409 715.853 464.16C715.423 463.588 714.982 463.002 714.104 463.378C713.318 463.771 713.295 464.498 713.271 465.246V465.247C713.262 465.526 713.253 465.809 713.204 466.078C712.891 467.524 712.587 468.97 712.283 470.415L712.283 470.417C711.187 475.625 710.094 480.821 708.615 485.962C708.075 487.851 708.525 488.481 709.605 489.561C719.673 499.045 729.478 508.792 739.29 518.547L739.293 518.549L739.295 518.551L739.297 518.554C747.634 526.841 755.976 535.134 764.488 543.274C768.852 547.458 773.171 551.709 777.489 555.96L777.497 555.967C781.813 560.216 786.129 564.465 790.49 568.646C800.747 578.453 810.824 588.35 820.901 598.247C822.431 599.777 823.96 600.137 825.94 599.957C828.46 599.803 830.951 599.766 833.446 599.729C835.315 599.702 837.187 599.674 839.076 599.597C842.405 599.417 844.474 601.486 845.014 604.276C848.332 620.337 853.924 635.703 859.515 651.063L859.52 651.076L859.525 651.09C860.602 654.048 861.678 657.006 862.738 659.969C863.327 661.561 863.876 663.167 864.425 664.777C865.304 667.349 866.185 669.929 867.237 672.475C868.497 675.714 867.057 677.693 864.718 679.133C861.467 681.134 858.172 682.96 854.864 684.795L854.86 684.797L854.855 684.8C853.406 685.604 851.954 686.409 850.502 687.23C846.723 689.39 843.034 691.549 839.345 693.888C833.227 697.847 829.808 696.048 828.369 688.76C828.87 687.202 828.476 685.747 828.081 684.289C827.837 683.39 827.593 682.489 827.559 681.562C827.019 674.814 826.389 667.976 821.261 662.578C819.372 660.598 817.752 658.439 816.223 656.19C807.405 643.144 797.148 631.717 783.922 622.72C771.069 613.95 758.565 604.683 746.038 595.399L746.036 595.397L746.033 595.395C741.725 592.202 737.415 589.008 733.088 585.831C728.803 582.683 724.506 579.547 720.208 576.41L720.17 576.382L720.161 576.376C708.139 567.603 696.109 558.824 684.323 549.752C682.103 548.049 679.779 546.464 677.452 544.876C671.667 540.929 665.858 536.966 661.56 531.128C654.632 521.771 647.884 512.324 643.925 501.167C641.958 495.758 641.683 490.184 641.408 484.604V484.603C641.23 480.995 641.052 477.384 640.416 473.815C640.112 472.127 640.353 470.198 640.587 468.323C640.977 465.202 641.349 462.231 639.156 460.769C636.887 459.256 633.336 459.598 629.805 459.939C628.296 460.084 626.791 460.229 625.391 460.229C619.452 460.229 617.923 459.06 617.563 453.122C616.843 440.255 616.213 427.299 615.853 414.433C615.781 412.099 615.486 409.795 615.191 407.49C614.759 404.109 614.326 400.726 614.594 397.249C612.014 399.894 610.407 403.027 608.807 406.144L608.806 406.147C608.23 407.269 607.655 408.389 607.036 409.485C606.152 411.064 605.266 412.643 604.38 414.223C598.953 423.893 593.516 433.582 588.412 443.405C586.432 447.273 583.463 447.633 580.134 447.003C578.852 446.733 577.722 445.856 576.592 444.979C576.215 444.687 575.838 444.394 575.456 444.124C573.296 442.595 571.047 442.145 568.708 443.764C566.706 445.205 564.701 446.646 562.696 448.088L562.618 448.143L562.54 448.199L562.531 448.206C552.693 455.277 542.824 462.371 533.079 469.587C523.362 476.784 514.004 484.252 504.917 492.26L504.846 492.323C496.593 499.679 488.434 506.952 481.974 516.102C480.625 517.992 480.535 519.341 481.884 521.231C483.921 524.083 485.846 526.973 487.779 529.876L487.78 529.877L487.782 529.881L487.785 529.884L487.787 529.888C488.839 531.468 489.894 533.053 490.971 534.637C499.969 548.043 508.156 562.078 515.804 576.204C522.372 588.26 528.58 600.587 533.888 613.273C535.778 617.771 537.757 621.46 542.436 624.339C547.728 627.527 552.578 631.398 557.443 635.28C559.856 637.206 562.273 639.135 564.749 640.984C565.362 641.438 565.971 641.905 566.583 642.373L566.586 642.375L566.586 642.376C570.46 645.343 574.401 648.362 579.684 648.362C582.822 648.362 585.894 648.85 588.961 649.337L588.961 649.337C590.995 649.66 593.025 649.982 595.07 650.162C598.939 650.522 600.828 653.671 599.299 657.269C599.029 657.899 598.669 658.529 598.309 659.159C593.18 668.696 588.142 678.053 583.013 687.32ZM548.824 130.03C561.33 130.84 586.253 113.385 589.671 104.568C588.791 104.094 588.165 104.639 587.603 105.13L587.602 105.13L587.602 105.131C587.417 105.291 587.24 105.446 587.062 105.557C580.674 109.246 580.134 109.156 576.086 103.218C574.764 101.211 573.416 99.2314 572.027 97.1912L572.02 97.1806L572.018 97.1778C570.856 95.4716 569.666 93.7231 568.438 91.8815C564.119 98.8094 559.441 104.838 552.693 108.886C550.893 109.966 550.443 111.496 552.063 113.295C552.518 113.807 552.902 114.428 553.282 115.043C553.502 115.399 553.721 115.754 553.952 116.084C557.281 121.033 556.651 123.012 551.793 126.701C551.533 126.89 551.131 127.017 550.699 127.153C549.498 127.532 548.063 127.985 548.796 130.043L548.824 130.03ZM548.284 130.03C548.265 130.108 548.245 130.186 548.211 130.264L548.105 130.3L548.104 130.3C548.149 130.21 548.172 130.12 548.194 130.03C548.217 129.94 548.239 129.85 548.284 129.76C548.308 129.772 548.332 129.785 548.355 129.8C548.322 129.877 548.303 129.953 548.284 130.03ZM200.9 241.146C200.72 241.206 200.52 241.246 200.32 241.286C199.92 241.366 199.52 241.446 199.28 241.686C195.736 244.47 192.237 247.308 188.739 250.143C181.049 256.377 173.373 262.6 165.271 268.228C157.803 273.356 154.384 278.935 155.554 288.022C156.003 291.531 156.723 292.7 159.962 292.161C164.731 291.351 169.319 291.801 173.188 294.77C174.514 295.778 175.935 296.473 177.356 297.169L177.357 297.169L177.357 297.169C178.346 297.653 179.336 298.138 180.296 298.729C182.185 299.898 183.355 299.898 184.165 297.019C185.562 292.012 187.223 287.043 188.88 282.087C189.783 279.384 190.685 276.685 191.543 273.986C192.562 270.768 193.62 267.567 194.679 264.367L194.68 264.365L194.68 264.362L194.681 264.36L194.681 264.36C197.173 256.825 199.662 249.299 201.62 241.596C202.429 241.506 202.699 240.876 202.249 240.426C202.066 240.304 201.915 240.26 201.787 240.269C201.873 240.276 201.966 240.323 202.069 240.426C202.519 240.876 202.249 241.506 201.44 241.596C201.26 241.416 201.08 241.236 200.9 241.146ZM200.9 241.146C201.01 241.063 201.112 240.913 201.216 240.76C201.315 240.613 201.417 240.463 201.529 240.368C201.391 240.47 201.284 240.635 201.182 240.792C201.09 240.934 201.002 241.069 200.9 241.146ZM661.29 163.5C661.29 157.741 663.539 155.672 667.678 156.302C670.351 156.733 671.04 158.817 671.727 160.89C671.757 160.98 671.786 161.07 671.816 161.16C676.225 172.947 680.634 184.733 684.952 196.52C685.312 197.419 685.672 198.229 686.482 198.409C687.458 198.592 687.483 198.031 687.51 197.426C687.522 197.139 687.536 196.841 687.652 196.61C690.343 190.192 693.087 183.828 695.843 177.435L695.857 177.404L695.857 177.403L695.861 177.394C696.693 175.465 697.526 173.534 698.358 171.597C702.098 162.814 702.055 162.772 695.629 156.604L695.218 156.209L694.939 155.942C680.274 142.086 666.598 127.421 654.812 110.956C649.773 104.028 643.115 98.0896 634.748 95.1205C624.401 91.4316 614.054 92.0614 603.887 96.83C601.908 97.7297 601.098 98.4495 601.458 100.339C602.358 106.187 599.388 110.686 595.88 114.555C584.813 126.791 571.407 135.608 555.482 139.837C550.173 141.276 543.875 141.726 538.837 137.768C537.127 136.508 535.958 136.508 534.158 137.678C532.494 138.757 530.784 139.769 529.075 140.782L529.074 140.782C527.365 141.794 525.656 142.806 523.991 143.886C522.779 144.646 521.537 145.379 520.295 146.112C516.1 148.588 511.889 151.073 508.696 154.682C501.678 162.78 501.588 171.597 506.357 181.224C512.557 193.774 519.998 205.456 527.443 217.145C528.965 219.534 530.487 221.924 531.999 224.321C538.207 234.128 543.875 244.295 549.544 254.462C550.893 256.801 551.703 256.621 553.323 255.002C554.265 254.037 555.196 253.056 556.128 252.073L556.129 252.072L556.129 252.072C558.936 249.113 561.755 246.141 564.929 243.575C568.738 240.528 572.12 237.052 575.491 233.587L575.492 233.586L575.493 233.586L575.493 233.586C577.695 231.322 579.893 229.063 582.204 226.93C582.267 226.867 582.33 226.806 582.392 226.746C583.033 226.127 583.509 225.666 582.114 224.681C579.08 222.436 576.169 220.068 573.242 217.688L573.242 217.687L573.241 217.687L573.24 217.686C571.828 216.538 570.412 215.386 568.978 214.244C564.884 210.96 560.813 207.699 556.741 204.437C552.67 201.176 548.599 197.914 544.505 194.63C541.536 192.201 541.266 189.232 543.605 186.533C545.945 183.833 549.094 184.913 551.433 186.713C566.099 198.229 580.584 209.836 595.07 221.622C597.229 223.421 598.579 226.031 595.52 228.64C594.896 229.181 594.33 229.779 593.768 230.373L593.767 230.374C593.114 231.064 592.466 231.748 591.741 232.329C589.402 234.218 589.132 235.748 591.291 238.177C593.105 240.166 594.69 242.346 596.27 244.518C597.12 245.686 597.968 246.851 598.849 247.984C604.067 254.822 609.375 261.21 617.923 264.539C623.141 266.578 628.33 268.698 633.518 270.817C643.895 275.056 654.272 279.294 664.889 282.893C666.006 283.266 667.106 283.711 668.204 284.155C671.346 285.426 674.467 286.689 677.935 286.222C680.92 285.803 683.875 285.262 686.818 284.724L686.819 284.723L686.82 284.723L686.82 284.723L686.821 284.723L686.822 284.723L686.823 284.723C688.933 284.336 691.036 283.951 693.14 283.613L693.398 283.574C696.777 283.061 698.482 282.802 699.076 281.85C699.682 280.88 699.133 279.189 698.025 275.776L697.998 275.696C697.773 275.021 697.571 274.323 697.369 273.626C697.166 272.928 696.964 272.231 696.739 271.557C694.315 264.031 691.885 256.51 689.457 248.992L689.455 248.985C681.52 224.418 673.594 199.878 665.878 175.286C665.282 173.337 664.404 171.476 663.571 169.711L663.57 169.71C662.52 167.482 661.541 165.407 661.29 163.5ZM211.337 206.147C213.35 200.368 215.533 194.791 217.687 189.286C220.733 181.505 223.721 173.87 226.092 166.019C227.05 162.71 229.946 163.025 232.415 163.293L232.66 163.32C235.089 163.59 235.719 165.389 235.809 167.728C235.809 170.837 234.737 173.572 233.667 176.304C233.25 177.368 232.833 178.431 232.48 179.515C228.73 190.887 225.149 202.301 221.563 213.729L221.562 213.73C219.9 219.028 218.236 224.329 216.555 229.63C215.022 234.433 213.496 239.231 211.97 244.025L211.968 244.031L211.966 244.037C207.493 258.093 203.032 272.113 198.47 286.132C197.661 288.562 197.481 289.551 200.72 290.001C201.089 290.07 201.465 290.14 201.845 290.211C203.964 290.609 206.218 291.032 208.277 291.261C210.042 291.41 211.796 291.818 213.554 292.227C217.084 293.048 220.628 293.872 224.293 292.61C245.526 284.963 266.67 277.225 286.824 267.148C289.073 265.979 291.232 264.629 292.492 262.65C295.275 258.32 298.523 254.323 301.779 250.316C302.313 249.66 302.847 249.003 303.379 248.344L303.602 248.056C308.059 242.317 308.06 242.316 302.749 236.827C299.87 233.858 300.05 230.799 303.199 228.19C304.862 226.841 306.526 225.47 308.189 224.099L308.192 224.096L308.198 224.091L308.2 224.09C309.862 222.72 311.524 221.35 313.186 220.003C316.174 217.596 319.156 215.183 322.136 212.771L322.137 212.77C329.744 206.613 337.343 200.462 345.036 194.45C346.745 193.101 348.725 191.571 351.334 192.471C353.313 193.191 355.023 194.54 355.293 196.52C355.634 199.423 353.383 201.273 351.383 202.915C351.276 203.003 351.169 203.091 351.064 203.178C348.974 204.863 346.886 206.551 344.799 208.239L344.797 208.241C335.296 215.924 325.801 223.603 316.065 230.979C313.522 232.886 314.278 233.6 315.543 234.795C315.71 234.953 315.886 235.119 316.065 235.298C325.332 244.205 334.599 253.112 343.686 262.11C346.026 264.449 347.015 263.639 348.365 261.21C349.49 259.118 350.597 257.015 351.705 254.912L351.706 254.911C355.029 248.602 358.352 242.293 362.131 236.288C364.147 233.149 366.188 230.027 368.227 226.907C376.654 214.015 385.067 201.143 391.732 187.162C395.511 179.245 395.511 167.998 388.133 161.34C383.112 156.904 377.41 153.527 371.714 150.155C368.631 148.33 365.55 146.506 362.581 144.515C360.781 143.256 359.072 144.066 357.812 145.055C353.043 148.834 347.375 148.294 342.427 147.125C327.491 143.616 314.895 135.428 304.188 124.632C304.039 124.483 303.89 124.333 303.739 124.183C298.99 119.444 293.739 114.205 296.181 106.007C296.433 105.249 295.425 104.807 294.631 104.458C294.577 104.434 294.523 104.411 294.471 104.388C284.754 100.339 274.947 98.4495 264.51 101.688C253.084 105.197 245.256 113.385 238.868 122.562C226.992 139.477 212.326 153.513 197.301 167.279C195.861 168.538 195.501 169.888 196.311 171.777C197.518 174.519 198.665 177.306 199.813 180.096C201.49 184.17 203.169 188.249 205.038 192.201C205.694 193.632 206.202 195.152 206.722 196.708C207.771 199.849 208.87 203.139 211.337 206.147ZM721.211 369.537C721.571 357.121 720.582 345.964 718.692 334.808C718.152 331.479 716.443 331.748 714.733 332.378C712.124 333.278 709.785 333.098 707.176 332.288C702.649 330.922 698.041 329.88 693.506 328.854L692.78 328.689C674.008 324.363 655.236 319.789 636.5 315.225L636.496 315.224L636.492 315.223L636.488 315.222L636.485 315.221L636.482 315.221L636.479 315.22C629.898 313.617 623.323 312.015 616.753 310.425C615.592 310.145 614.391 309.695 613.166 309.237C608.888 307.636 604.325 305.928 600.198 310.965C600.09 311.073 599.916 311.084 599.736 311.095C599.617 311.102 599.496 311.109 599.388 311.145C597.457 311.467 595.519 311.768 593.58 312.07C588.472 312.864 583.356 313.66 578.335 314.834C577.291 315.084 576.227 315.262 575.161 315.44C571.634 316.03 568.08 316.625 565.109 319.872C558.219 327.477 551.048 334.752 543.867 342.039C541.107 344.839 538.345 347.64 535.598 350.463C521.292 365.128 506.987 379.704 492.681 394.279L491.781 395.179C490.278 396.594 490.774 396.792 492.499 397.482L492.591 397.518C497.924 399.561 503.186 401.783 508.444 404.002L508.445 404.003L508.446 404.003L508.447 404.004C511.526 405.303 514.603 406.603 517.693 407.865C538.117 416.143 558.451 424.87 578.245 434.497C580.134 435.397 580.764 435.397 581.844 433.508C585.818 426.273 589.817 419.064 593.814 411.861L593.824 411.842L593.84 411.814C600.421 399.953 606.992 388.109 613.424 376.195C615.224 372.956 617.563 372.326 620.532 372.866C623.321 373.406 624.401 375.835 624.401 378.354C624.455 385.311 624.897 392.235 625.339 399.165C625.634 403.798 625.93 408.434 626.11 413.084C626.56 424.51 627.01 435.937 627.91 447.363C628.09 449.793 628.81 450.242 630.969 450.152C637.087 449.793 643.205 449.523 649.323 449.433C651.69 449.417 654.056 449.384 656.422 449.35H656.423C667.91 449.186 679.386 449.022 690.801 450.962C693.86 451.502 697.009 451.232 695.659 446.733C695.131 445.06 695.12 443.321 695.109 441.613C695.098 439.832 695.087 438.084 694.49 436.477C693.41 433.328 694.849 431.348 696.829 430.358C698.988 429.279 701.957 429.189 703.667 431.978C704.09 432.648 704.666 433.194 705.242 433.74C706.134 434.587 707.027 435.434 707.356 436.747C707.536 437.286 708.165 438.006 709.065 437.826C709.754 437.638 709.745 437.146 709.737 436.652C709.734 436.435 709.73 436.218 709.785 436.027C710.475 433.087 711.155 430.136 711.835 427.186C713.194 421.289 714.554 415.392 715.993 409.575C716.481 407.552 717.132 405.556 717.782 403.561L717.783 403.56C718.81 400.409 719.836 397.26 720.222 394.01L720.252 393.687C721.051 385.162 721.833 376.823 721.211 369.537ZM190.267 442.891L190.273 442.883L190.274 442.882L190.277 442.878C191.515 441.296 192.539 439.987 193.522 438.636C195.141 436.387 197.661 436.387 199.73 437.016C201.71 437.646 203.509 439.176 203.239 441.875C203.128 443.203 203.086 444.548 203.043 445.891V445.892C202.947 448.918 202.852 451.937 201.979 454.741C200.68 458.986 203.218 458.309 204.934 457.852C205 457.834 205.065 457.817 205.128 457.8C209.807 456.631 214.576 456.361 219.254 456.271C234.909 456.001 250.565 455.821 266.22 456.99C266.315 456.999 266.411 457.01 266.507 457.02C266.559 457.026 266.61 457.032 266.662 457.038L266.773 457.051L266.777 457.052C268.509 457.254 270.26 457.458 270.179 454.291C269.995 446.593 270.517 438.937 271.04 431.266L271.04 431.263C271.288 427.638 271.535 424.009 271.708 420.372C271.843 417.402 271.967 414.433 272.091 411.464C272.462 402.556 272.833 393.649 273.508 384.742L273.523 384.536C273.695 382.272 273.857 380.141 276.477 379.704C278.996 379.344 281.605 379.074 283.225 382.133C285.684 386.631 288.223 391.049 290.761 395.467L290.763 395.469C292.032 397.679 293.302 399.888 294.561 402.107C296.218 405.059 297.885 408.007 299.552 410.955L299.558 410.966L299.564 410.977L299.571 410.988C304.96 420.517 310.355 430.057 315.435 439.806C317.054 442.865 318.314 442.235 320.383 441.065C328.088 436.425 336.304 432.892 344.451 429.389L345.126 429.099C347.817 427.951 350.506 426.8 353.195 425.648L353.212 425.641L353.254 425.623C370.145 418.391 387.024 411.164 404.238 404.806C405.857 404.176 406.937 403.367 404.958 401.477C402.889 399.457 400.924 397.334 398.965 395.217L398.964 395.217L398.964 395.217L398.964 395.216L398.963 395.216C397.259 393.375 395.559 391.539 393.801 389.781C389.194 385.111 384.533 380.485 379.87 375.857L379.868 375.855L379.867 375.854L379.865 375.852L379.864 375.851C371.053 367.105 362.235 358.353 353.763 349.293C349.785 345.031 345.683 340.894 341.574 336.75L341.574 336.75L341.573 336.749L341.572 336.748C337.874 333.019 334.172 329.285 330.55 325.45C329.471 324.281 328.391 323.471 326.591 323.201C319.934 322.301 313.366 321.222 306.888 319.692C305.756 319.444 304.566 319.322 303.373 319.201C300.677 318.926 297.969 318.65 295.911 316.903C293.482 314.834 291.592 314.204 288.623 315.194C286.413 315.93 284.103 316.368 281.804 316.803C281.015 316.953 280.228 317.102 279.446 317.263C270.299 319.393 261.191 321.639 252.086 323.885L252.083 323.886C241.575 326.478 231.07 329.068 220.514 331.479C216.888 332.309 213.291 333.331 209.69 334.353C200.423 336.983 191.135 339.619 181.286 339.036C179.306 338.946 178.946 340.296 178.766 341.376C178.632 342.08 178.492 342.785 178.352 343.49C177.652 347.014 176.952 350.538 176.877 354.062C176.684 364.729 176.721 375.397 176.758 386.064V386.066C176.772 390.333 176.787 394.601 176.787 398.868C176.787 399.133 176.768 399.416 176.748 399.706L176.748 399.706C176.694 400.499 176.637 401.334 176.967 401.927C179.352 405.63 180.117 409.815 180.881 413.992C181.212 415.803 181.543 417.613 182.005 419.382C183.544 425.105 184.914 430.829 186.346 436.811L186.347 436.814L186.348 436.816L186.348 436.818C187.009 439.58 187.683 442.396 188.394 445.294C189.067 444.424 189.679 443.643 190.246 442.918L190.267 442.891ZM886.671 103.848C887.031 98.9893 885.411 90.4419 881.992 82.1644C871.196 55.6225 844.744 45.6356 819.102 55.1727C806.416 59.8512 796.069 68.0387 787.881 78.5655C775.195 95.0305 767.997 113.475 768.357 134.708C768.627 148.924 772.316 161.79 780.953 172.947C788.061 182.214 797.778 188.152 809.475 189.412C826.659 191.211 842.135 185.813 855.001 174.566C875.245 157.202 886.311 135.068 886.671 103.848ZM79.7966 196.969C99.5006 196.61 114.076 187.612 122.714 170.248C131.351 152.973 131.621 134.618 125.683 116.534C115.786 86.3032 97.2513 64.5298 64.0514 59.2214C47.1365 56.5222 32.561 63.5401 22.3941 77.036C15.0163 86.933 11.4174 98.4495 11.1475 110.866C10.8776 122.022 11.9572 132.909 15.916 143.436C21.6743 158.641 30.1317 171.777 42.9978 182.034C53.7945 190.761 65.7609 196.52 79.7966 196.969ZM336.938 444.034C338.512 445.191 340.04 446.324 341.543 447.439L341.546 447.441C344.251 449.447 346.874 451.393 349.535 453.302C373.017 469.767 395.96 486.861 415.934 507.555C420.343 512.144 424.482 516.912 426.911 522.76C429.7 529.508 433.209 535.806 437.168 541.925C445.323 554.522 455.001 565.885 464.671 577.238C469.297 582.669 473.921 588.098 478.375 593.659C484.583 601.396 490.792 609.044 497.09 616.692C499.367 619.445 501.669 622.184 503.973 624.926L503.975 624.928C507.77 629.444 511.569 633.965 515.264 638.555C516.884 640.625 518.773 640.984 520.752 639.725C523.631 637.926 526.33 635.766 529.029 633.607L529.03 633.607C529.84 632.977 530.469 632.347 529.75 630.728C528.328 627.569 527.029 624.342 525.728 621.113C524.065 616.984 522.401 612.853 520.482 608.864C509.326 585.561 496.82 562.978 482.784 541.295C468.298 518.892 452.553 497.478 436.088 476.514C434.402 474.371 432.632 472.291 430.861 470.211L430.861 470.21C426.017 464.52 421.166 458.821 418.004 451.772C414.664 444.35 410.941 437.098 407.216 429.841C405.522 426.541 403.828 423.24 402.168 419.922L402.098 419.779C401.239 418.057 400.657 416.891 398.03 417.942C393.176 419.992 388.312 422.031 383.44 424.073L383.438 424.074L383.437 424.074L383.435 424.075C367.989 430.55 352.464 437.058 336.938 444.034ZM703.307 463.378C701.698 463.083 700.097 462.732 698.501 462.383C694.744 461.559 691.018 460.742 687.292 460.679C683.746 460.584 680.211 460.344 676.679 460.105C670.175 459.664 663.682 459.223 657.151 459.69C656.369 459.75 655.536 459.709 654.71 459.669C653.067 459.589 651.451 459.511 650.313 460.229C649.363 460.844 649.801 462.083 650.27 463.408C650.556 464.217 650.853 465.058 650.853 465.808C650.853 472.706 651.165 479.605 651.478 486.504C651.54 487.883 651.603 489.261 651.663 490.64C651.663 491.36 651.753 492.08 651.933 492.799C655.352 506.565 662.369 518.532 672.536 528.069C678.914 534.052 686.156 539.218 693.386 544.376L693.388 544.377C696.051 546.276 698.712 548.175 701.327 550.112C708.641 555.444 715.968 560.75 723.294 566.054C735.252 574.713 747.206 583.369 759.09 592.129C769.767 599.987 780.364 607.925 790.961 615.862C796.259 619.831 801.557 623.8 806.865 627.758C806.91 627.788 806.954 627.818 806.997 627.848L807.09 627.912L807.099 627.918C807.786 628.391 808.304 628.749 809.115 627.938C809.412 627.647 809.711 627.357 810.009 627.067C813.95 623.233 817.866 619.423 819.372 613.903C819.641 613.003 819.821 612.013 818.652 610.844C800.837 593.659 783.203 576.474 765.568 559.109C746.251 540.152 727.023 521.194 707.796 502.236L707.795 502.235L707.795 502.235L707.794 502.234L707.716 502.157C707.254 501.695 706.697 501.304 706.156 500.924C705.641 500.563 705.141 500.212 704.746 499.817C704.141 499.242 703.497 498.68 702.85 498.116L702.848 498.115C699.553 495.243 696.18 492.305 697.459 487.041C698.743 481.327 700.164 475.75 701.593 470.147L701.594 470.141C702.167 467.895 702.74 465.644 703.307 463.378ZM230.861 466.617C219.704 466.258 208.008 467.607 196.221 469.227C193.951 469.551 194.238 470.752 194.515 471.908C194.545 472.035 194.575 472.161 194.602 472.286C195.006 474.054 195.401 475.822 195.795 477.588C197.066 483.28 198.331 488.947 199.91 494.509C200.81 497.748 199.82 499.637 197.841 501.707C195.489 504.058 193.028 506.263 190.574 508.462L190.571 508.465L190.567 508.468L190.566 508.47C189.173 509.718 187.782 510.964 186.414 512.234C179.695 518.485 173.236 524.999 166.773 531.517L166.772 531.518C159.563 538.788 152.347 546.065 144.757 552.991C137.784 559.397 131.128 566.141 124.471 572.886C117.385 580.065 110.299 587.245 102.83 594.019C97.7979 598.56 93.0592 603.435 88.328 608.303L88.3276 608.303L88.327 608.304C86.1213 610.573 83.9173 612.841 81.686 615.072C77.7272 619.031 77.2774 621.82 80.5164 626.319C81.6818 628.009 83.0737 629.51 84.4721 631.018L84.4726 631.019L84.4732 631.019C85.2335 631.839 85.9958 632.661 86.7245 633.517C88.1641 635.226 89.0638 635.586 91.2231 633.967C99.501 627.728 107.859 621.65 116.217 615.571C120.395 612.533 124.573 609.494 128.742 606.435C136.71 600.588 144.678 594.712 152.663 588.823L152.684 588.807C158.577 584.461 164.48 580.108 170.399 575.754C174.35 572.831 178.294 569.891 182.24 566.95L182.253 566.94L182.266 566.931C193.86 558.289 205.467 549.637 217.275 541.385C229.691 532.657 237.879 520.961 243.277 507.195C246.315 499.342 246.468 491.087 246.621 482.825C246.708 478.12 246.795 473.413 247.416 468.777C247.686 466.887 246.606 466.707 245.076 466.707C242.791 466.707 240.57 466.686 238.297 466.664H238.295H238.292H238.29C235.913 466.641 233.481 466.617 230.861 466.617ZM560.16 437.106C551.442 433.421 542.993 429.826 534.545 426.231L534.518 426.22C528.714 423.745 522.932 421.27 517.15 418.795C511.37 416.322 505.591 413.848 499.789 411.374C497.719 410.475 496.37 410.834 495.29 413.174C492.996 418.029 490.48 422.821 487.968 427.606C486.244 430.89 484.522 434.171 482.874 437.466C478.015 447.183 472.797 456.541 465.239 464.638C461.101 469.047 457.412 473.995 453.993 479.124C452.733 481.013 453.273 482.183 454.083 483.262C458.208 488.82 462.37 494.342 466.522 499.85L466.541 499.875L466.542 499.876C468.903 503.008 471.261 506.136 473.607 509.264C494.92 484.139 521.211 465.201 547.71 446.113C551.861 443.123 556.017 440.129 560.16 437.106ZM549.904 33.3093C549.184 33.3093 548.457 33.2753 547.729 33.2413C546.088 33.1646 544.444 33.0877 542.886 33.3993C521.742 37.628 504.827 49.5044 488.632 62.9103C487.013 64.2599 486.743 66.0593 487.283 67.5889C491.331 80.365 497.629 91.6116 508.966 99.2592C522.282 108.257 537.037 108.616 549.814 98.4495C560.7 89.8121 564.119 77.4859 565.289 64.4398C566.009 56.6122 563.939 48.9645 561.15 41.5868L560.969 41.0767C559.574 37.1388 558.878 35.1749 557.488 34.2066C556.106 33.2433 554.037 33.2653 549.909 33.3092L549.904 33.3093ZM332.35 68.0387C332.26 80.275 334.959 90.082 341.257 98.8994C350.344 111.585 363.93 116.174 377.696 111.316C395.601 105.017 405.947 91.7015 410.086 73.3471C410.446 71.9076 410.266 71.7276 409.276 70.7379C403.248 65.0696 396.68 60.3011 389.752 55.8025C375.807 46.8952 361.321 39.6074 344.046 40.1472C341.167 40.2372 339.728 41.1369 338.558 43.6562C334.599 51.8437 332.08 60.3911 332.35 68.0387ZM439.057 562.258C438.651 561.716 438.244 561.178 437.84 560.643C436.363 558.69 434.911 556.768 433.569 554.791C428.53 547.413 423.852 539.855 419.623 531.938C418.031 528.929 417.308 530.098 416.172 531.934L416.114 532.028C412.785 537.426 409.366 542.914 405.947 548.223C390.832 572.065 378.146 597.168 367.709 623.44C366.989 625.239 367.259 626.319 368.699 627.309C369.52 627.864 370.321 628.439 371.121 629.012L371.122 629.013L371.124 629.014C373.302 630.577 375.466 632.128 377.966 633.247C379.495 633.877 380.485 633.787 381.385 632.617C386.859 625.404 392.702 618.421 398.518 611.471L398.519 611.47L398.522 611.466L398.526 611.462L398.529 611.458C400.835 608.703 403.136 605.953 405.408 603.196C408.814 599.102 412.167 594.964 415.518 590.828C421.813 583.058 428.103 575.294 434.739 567.837C435.877 566.572 436.838 565.262 437.808 563.939C438.218 563.381 438.63 562.82 439.057 562.258ZM671.547 296.389C666.337 294.503 661.037 292.617 655.737 290.73L655.711 290.721C641.046 285.413 626.83 279.294 612.615 272.996C612.334 272.869 612.053 272.741 611.771 272.613L611.767 272.611L611.762 272.608C606.885 270.393 601.794 268.079 598.309 263.999C593.09 257.971 588.322 251.493 583.643 245.015C582.204 242.946 581.574 243.035 579.774 244.385C576.659 246.709 573.977 249.435 571.293 252.164L571.293 252.164L571.292 252.165C569.403 254.085 567.513 256.007 565.469 257.791C562.68 260.31 562.5 261.84 565.289 264.719C570.727 270.395 575.966 276.271 581.217 282.16C583.873 285.138 586.532 288.119 589.222 291.081C590.661 292.7 592.371 293.87 594.62 294.32C601.278 295.669 607.936 297.289 614.504 298.908C621.02 300.528 627.522 302.178 634.021 303.828C643.404 306.209 652.781 308.589 662.189 310.875C664.259 311.415 666.508 311.595 667.318 308.266C668.002 305.187 669.207 302.212 670.417 299.222L670.419 299.218C670.8 298.278 671.181 297.336 671.547 296.389ZM335.229 268.138C334.779 267.508 334.509 267.148 334.239 266.878C331.36 264.089 328.458 261.322 325.556 258.555C322.655 255.789 319.753 253.022 316.874 250.233C316.065 249.424 315.615 249.334 314.715 250.683C313.201 252.906 311.514 255.03 309.822 257.159L309.821 257.16C308.295 259.08 306.766 261.004 305.358 263.009C300.32 270.027 294.291 275.606 286.284 279.204C269.549 286.672 252.634 293.96 235.269 299.718C234.53 299.965 233.717 300.184 232.895 300.405C230.417 301.072 227.848 301.763 226.902 303.317C225.842 305.134 227.394 307.97 228.77 310.486C229.03 310.96 229.283 311.422 229.511 311.865C230.179 313.284 230.614 314.858 231.033 316.371L231.131 316.723C231.49 317.893 232.39 318.702 233.38 317.983C234.401 317.202 235.541 317.143 236.696 317.083C237.271 317.053 237.85 317.023 238.418 316.903C247.818 314.564 257.239 312.293 266.661 310.022L266.664 310.022L266.667 310.021L266.67 310.02L266.673 310.019L266.675 310.019L266.678 310.018C276.1 307.747 285.522 305.476 294.921 303.137C295.905 302.887 296.909 302.673 297.915 302.457C302.701 301.433 307.544 300.397 310.666 295.49C312.467 292.729 314.867 290.409 317.254 288.102L317.255 288.101C318.447 286.95 319.635 285.801 320.743 284.603C323.397 281.684 325.987 278.734 328.59 275.771L328.59 275.77L328.591 275.77L328.592 275.769L328.593 275.767L328.595 275.765L328.596 275.763C330.404 273.706 332.216 271.642 334.059 269.577C334.329 269.128 334.779 268.588 335.229 268.138ZM696.379 233.588C695.665 234.659 695.836 235.288 696.103 236.264L696.109 236.288C696.856 238.552 697.605 240.817 698.354 243.082L698.367 243.123C703.385 258.302 708.408 273.499 713.024 288.832C714.463 293.6 715.813 292.88 718.962 290.901C719.315 290.683 719.666 290.465 720.018 290.246C723.888 287.841 727.757 285.435 732.458 284.693C733.601 284.534 734.889 284.7 736.153 284.863C738.471 285.162 740.709 285.45 741.815 283.703C742.884 282.005 742.635 279.472 742.387 276.964C742.281 275.884 742.175 274.808 742.175 273.806C742.175 273.503 742.165 273.2 742.155 272.901V272.9V272.9V272.899V272.899V272.898C742.135 272.309 742.115 271.733 742.175 271.197C742.445 269.487 741.455 268.408 740.286 267.508C736.462 264.584 732.66 261.637 728.859 258.69L728.85 258.684L728.832 258.67C725.04 255.73 721.247 252.791 717.433 249.873C710.417 244.387 703.402 238.99 696.386 233.594L696.379 233.588ZM152.876 302.886L152.876 302.886C151.393 303.143 149.926 303.398 148.446 303.497C146.016 303.677 143.407 304.307 141.428 306.286C140.168 307.636 140.168 308.266 140.978 310.155C142.671 314.218 146.116 315.972 149.44 317.664L149.711 317.802C149.829 317.862 149.947 317.922 150.065 317.983C152.207 319.067 154.218 320.364 156.226 321.659L156.226 321.659C160.883 324.662 165.525 327.655 171.749 327.97C173.319 328.061 174.878 328.189 176.43 328.317L176.431 328.317C182.528 328.819 188.524 329.313 194.692 327.52C194.928 327.451 195.157 327.384 195.38 327.319C198.927 326.286 200.741 325.758 201.44 324.573C202.17 323.333 201.68 321.374 200.678 317.365L200.63 317.173C199.19 311.415 198.47 311.055 192.892 312.134C188.484 313.034 184.165 313.484 180.116 310.425C178.137 308.895 175.707 307.636 173.458 306.736C172.202 306.217 171.004 305.475 169.806 304.732L169.806 304.732C167.057 303.028 164.309 301.325 160.862 302.327C158.065 301.985 155.449 302.439 152.876 302.886ZM701.777 304.757C701.178 304.89 700.616 304.666 700.118 304.467C699.27 304.13 698.609 303.866 698.268 305.566C697.549 309.345 696.559 313.034 695.479 316.633C695.209 317.623 695.119 318.433 696.019 318.612C697.77 319.014 699.512 319.572 701.256 320.13L701.257 320.131C704.98 321.322 708.714 322.518 712.574 322.211C714.581 322.063 716.573 321.807 718.562 321.551C721.388 321.187 724.208 320.825 727.06 320.772C730.119 320.682 732.728 319.872 735.157 318.343C735.996 317.839 736.861 317.362 737.728 316.884L737.73 316.882C739.651 315.822 741.581 314.758 743.255 313.394C744.724 312.224 746.394 311.345 748.063 310.465C751.402 308.706 754.741 306.946 756.481 302.867C757.56 300.258 757.201 299.718 755.041 298.549C750.602 296.167 745.87 296.097 741.138 296.028C738.006 295.982 734.874 295.936 731.828 295.22C731.273 295.108 730.992 295.443 730.709 295.779C730.535 295.987 730.36 296.196 730.119 296.299C727.545 297.413 725.087 298.915 722.644 300.407C716.204 304.341 709.865 308.214 701.777 304.757ZM120.374 191.571C109.308 201.378 96.8914 206.777 81.5061 207.496C97.7911 219.913 112.187 232.419 124.063 248.074C119.564 229.54 119.834 210.915 120.374 191.571ZM776.994 184.013C777.804 203.717 777.894 222.702 773.486 241.596C785.092 225.491 799.938 212.805 815.773 200.478C800.477 199.939 787.701 194.81 776.994 184.013ZM700.968 192.651C700.201 194.507 699.474 196.301 698.768 198.046C696.907 202.645 695.187 206.896 693.23 211.005C691.341 214.964 692.78 217.753 695.659 220.003C698.792 222.464 701.972 224.895 705.153 227.327L705.155 227.328L705.156 227.329L705.157 227.33C709.648 230.764 714.142 234.199 718.512 237.727L718.923 238.058C722.345 240.814 724.069 242.203 725.609 242.022C727.171 241.838 728.544 240.037 731.31 236.406L731.468 236.198C732.908 234.398 733.088 233.228 731.558 231.519C730.73 230.583 729.899 229.651 729.067 228.718C725.742 224.99 722.417 221.262 719.322 217.303C717.471 214.9 715.45 212.623 713.408 210.323C708.8 205.132 704.085 199.82 700.968 192.651ZM196.671 199.489C196.3 200.316 195.993 201.079 195.709 201.786L195.709 201.786C195.096 203.308 194.591 204.562 193.792 205.607C189.931 210.433 185.887 215.136 181.861 219.818C181.008 220.81 180.156 221.801 179.306 222.792C178.231 224.061 177.155 225.325 176.08 226.588L176.078 226.59L176.077 226.593L176.075 226.595L176.073 226.597C172.656 230.612 169.252 234.612 165.9 238.717C164.641 240.246 169.409 250.143 171.389 250.233C171.756 250.233 172.184 249.873 172.573 249.545L172.574 249.544L172.578 249.541L172.583 249.537C172.667 249.466 172.749 249.397 172.828 249.334L172.829 249.333L172.829 249.333L172.83 249.332L172.831 249.332C182.727 241.505 192.623 233.678 202.609 225.941C205.308 223.871 205.758 221.262 204.679 218.563C203.114 214.41 201.347 210.337 199.488 206.049L199.487 206.049L199.487 206.048L199.487 206.048C198.567 203.926 197.624 201.752 196.671 199.489ZM307.157 111.496C312.646 123.192 339.548 139.027 348.815 136.238C339.458 129.76 339.458 129.76 345.306 120.223C345.486 119.953 345.666 119.773 345.846 119.593C346.835 118.333 346.745 117.524 345.216 116.534C338.648 112.035 333.339 106.277 329.201 98.9893C328.292 100.353 327.421 101.621 326.579 102.847L326.578 102.849L326.577 102.85C325.587 104.293 324.636 105.677 323.712 107.087C317.954 116.084 317.414 116.264 308.147 111.496H307.157ZM356.642 23.1424C376.616 25.6616 393.441 32.9494 408.916 44.106C405.497 32.8594 399.019 24.402 388.133 19.9034C377.516 15.4947 367.349 16.6644 356.642 23.1424ZM489.172 36.6383C504.018 25.3017 520.842 19.0037 539.107 15.6747C529.21 10.2763 519.133 8.11697 508.426 12.8855C498.079 17.5641 491.961 25.6616 489.172 36.6383ZM767.727 271.467C767.727 270.864 767.737 270.271 767.747 269.681V269.679V269.677V269.676C767.767 268.508 767.787 267.353 767.727 266.158C767.713 265.849 767.717 265.539 767.722 265.234C767.745 263.677 767.766 262.232 765.208 261.48C762.599 260.76 761.069 260.67 759.63 263.099C758.882 264.395 757.969 265.581 757.058 266.763L757.057 266.764L757.056 266.765L757.056 266.766C756.323 267.717 755.592 268.665 754.951 269.667C752.693 273.146 752.877 276.955 753.061 280.759C753.148 282.563 753.235 284.366 753.062 286.132C753.062 286.402 753.242 286.672 753.422 286.852C757.201 290.271 762.689 289.101 765.478 284.693C767.912 280.78 767.826 276.447 767.737 271.938L767.727 271.467ZM129.372 278.035C129.388 278.657 129.396 279.276 129.403 279.892C129.435 282.575 129.467 285.208 130.271 287.842C132.341 294.59 135.85 296.389 142.328 294.32C145.117 293.42 145.567 292.34 144.397 289.731C143.923 288.717 144.06 287.448 144.195 286.192C144.24 285.778 144.285 285.365 144.307 284.963C144.577 281.004 144.577 277.225 140.798 274.436C139.904 273.758 139.327 272.669 138.753 271.583C137.649 269.499 136.553 267.43 133.24 268.318C128.994 269.362 129.164 272.399 129.334 275.428C129.383 276.314 129.433 277.2 129.372 278.035ZM567.268 283.163C567.898 290.721 568.438 297.469 568.978 304.307C569.068 305.566 569.878 305.836 570.777 305.656C572.384 305.357 573.991 305.012 575.604 304.665L575.606 304.665L575.608 304.664L575.61 304.664C577.879 304.176 580.161 303.685 582.474 303.317C585.713 302.867 585.263 301.428 583.643 299.718C582.532 298.533 581.359 297.393 580.188 296.255L580.188 296.254L580.188 296.254L580.187 296.253C578.515 294.628 576.847 293.007 575.366 291.261C575.041 290.886 574.72 290.51 574.398 290.132C572.399 287.791 570.368 285.41 567.268 283.163ZM312.106 309.435C316.335 310.965 320.833 311.865 325.512 311.954C327.311 311.954 327.941 311.505 328.211 309.705C329.021 304.307 329.831 298.908 329.741 293.42C329.741 293.23 329.765 293.026 329.79 292.818C329.872 292.139 329.959 291.425 329.201 291.081C328.226 290.733 327.844 291.354 327.429 292.028C327.308 292.225 327.184 292.427 327.041 292.61C325.129 295.096 322.892 297.306 320.633 299.536L320.633 299.537C317.578 302.553 314.485 305.608 312.106 309.435ZM149.255 267.058C150.875 266.788 151.595 265.799 151.325 264.539C151.31 264.47 151.295 264.401 151.28 264.331C151.261 264.241 151.242 264.15 151.223 264.059L151.221 264.051C150.808 262.09 150.348 259.901 148.356 259.321C147.366 259.051 145.117 261.12 145.297 262.38C145.622 264.329 147.34 265.619 148.796 266.712L148.801 266.715L148.819 266.729C148.968 266.84 149.114 266.95 149.255 267.058ZM749.283 252.932C747.214 253.832 746.314 255.632 745.774 257.521C745.414 258.961 746.404 260.13 748.023 259.95C750.363 259.68 751.172 257.521 751.712 255.722C751.961 254.559 750.677 253.779 749.558 253.1L749.551 253.096L749.411 253.011C749.368 252.985 749.325 252.959 749.283 252.932ZM440.317 253.922C454.173 253.382 466.229 264.989 466.049 279.294C465.869 293.42 453.903 305.476 439.327 305.116C426.101 304.757 414.495 293.15 414.315 279.564C414.225 266.248 424.662 253.112 440.317 253.922ZM426.191 286.492C428.171 288.472 429.7 290.001 431.32 291.531C431.47 291.651 431.61 291.781 431.75 291.91L431.75 291.911C432.03 292.171 432.309 292.43 432.669 292.61C435.728 294.41 437.528 293.6 437.978 290.181C438.967 282.173 444.186 277.855 451.114 275.246C455.072 273.806 455.522 273.266 452.733 269.937C451.653 268.588 450.214 267.508 448.774 266.518C444.546 263.729 443.826 264.089 443.196 268.857L443.196 268.858C443.106 269.398 443.016 269.937 442.836 270.567C440.317 278.665 434.919 283.883 426.191 286.492ZM432.489 266.518C429.43 267.958 425.022 273.176 425.741 274.526C425.921 274.796 426.461 275.066 426.821 275.066C429.16 274.886 432.309 270.297 432.489 266.518ZM453.543 285.862C450.664 286.762 448.774 288.561 447.875 291.801C451.132 291.324 452.144 289.024 453.142 286.758C453.274 286.457 453.406 286.157 453.543 285.862Z" fill="#F16C19"/>
</svg>
