<svg width="96" height="96" viewBox="0 0 96 96" fill="none" xmlns="http://www.w3.org/2000/svg">
<path d="M14.0431 81.911C23.1434 90.9984 35.1971 96 48 96C60.8029 96 72.8614 90.9984 81.9569 81.911C100.681 63.2135 100.681 32.7913 81.9569 14.089C72.8614 5.00644 60.7981 0 48 0C35.2019 0 23.1386 5.00644 14.0431 14.089C-4.68102 32.7865 -4.68102 63.2135 14.0431 81.911ZM75.1665 75.1302C70.0329 80.2566 63.7131 83.7189 56.8554 85.3397C56.8122 77.6574 59.6695 70.2533 64.9761 64.9543C70.5611 59.3772 78.0959 56.1882 85.5154 56.0779C84.0219 63.0601 80.5883 69.7162 75.1665 75.1302ZM86.3318 46.5254C76.1318 46.4247 65.7588 50.6159 58.1856 58.1735C50.8285 65.5202 47.0107 75.8208 47.3181 86.3755C37.3341 86.2029 27.9505 82.2419 20.8287 75.1302C13.5196 67.8268 9.80266 58.2886 9.62978 48.6977C9.99955 48.7073 10.3693 48.7649 10.7391 48.7649C20.8959 48.7649 30.7166 44.9093 37.8096 37.8313C45.3972 30.2545 49.6088 19.9011 49.4791 9.66762C59.1557 10.0321 68.2368 13.9595 75.1665 20.8746C82.2835 27.9766 85.9716 37.1983 86.3318 46.5254ZM20.8335 20.8746C26.1544 15.5612 32.7528 12.0078 39.913 10.4733C39.8265 17.9302 36.6234 25.4542 31.0239 31.0505C25.7222 36.3399 18.3363 39.1836 10.6719 39.1596C12.247 32.4604 15.6086 26.0872 20.8335 20.8746Z" fill="#F16C19"/>
</svg>
